<svg width="456" height="62" viewBox="0 0 456 62" fill="none" xmlns="http://www.w3.org/2000/svg">
<path d="M36.0899 0L72.1532 62H0.0267334L36.0899 0Z" fill="black"/>
<mask id="mask0_3_531" style="mask-type:alpha" maskUnits="userSpaceOnUse" x="108" y="0" width="32" height="31">
<rect x="139.768" y="31" width="31.2317" height="31" transform="rotate(-180 139.768 31)" fill="#BD5353"/>
</mask>
<g mask="url(#mask0_3_531)">
<ellipse cx="139.768" cy="31" rx="31.2317" ry="31" transform="rotate(-180 139.768 31)" fill="#BD5353"/>
</g>
<mask id="mask1_3_531" style="mask-type:alpha" maskUnits="userSpaceOnUse" x="108" y="31" width="32" height="31">
<rect width="31.2317" height="31" transform="matrix(-1 0 0 1 139.768 31)" fill="#FFDADA"/>
</mask>
<g mask="url(#mask1_3_531)">
<ellipse rx="31.2317" ry="31" transform="matrix(-1 0 0 1 139.768 31)" fill="#FFDADA"/>
</g>
<mask id="mask2_3_531" style="mask-type:alpha" maskUnits="userSpaceOnUse" x="139" y="0" width="32" height="31">
<rect width="31.2317" height="31" transform="matrix(1 0 0 -1 139.768 31)" fill="#FF7777"/>
</mask>
<g mask="url(#mask2_3_531)">
<ellipse rx="31.2317" ry="31" transform="matrix(1 0 0 -1 139.768 31)" fill="#FF7777"/>
</g>
<mask id="mask3_3_531" style="mask-type:alpha" maskUnits="userSpaceOnUse" x="139" y="31" width="32" height="31">
<rect x="139.768" y="31" width="31.2317" height="31" fill="black"/>
</mask>
<g mask="url(#mask3_3_531)">
<ellipse cx="139.768" cy="31" rx="31.2317" ry="31" fill="black"/>
</g>
<mask id="mask4_3_531" style="mask-type:alpha" maskUnits="userSpaceOnUse" x="0" y="0" width="73" height="62">
<path d="M36.0632 0L72.1264 62H0L36.0632 0Z" fill="#FFDADA"/>
</mask>
<g mask="url(#mask4_3_531)">
<rect x="36.0632" width="36.0365" height="62" fill="#FFDADA"/>
</g>
<path d="M206.625 52.5739L222.219 16.1459H222.558L238.151 52.5739H231.662L220.669 24.9405L224.737 22.2012L212.194 52.5739H206.625ZM216.407 39.5982H228.466L230.403 44.356H214.712L216.407 39.5982Z" fill="black"/>
<path d="M251.673 17.5876C253.61 17.5876 255.386 17.8439 257 18.3565C258.615 18.8371 259.987 19.558 261.117 20.5192C262.247 21.4803 263.118 22.6658 263.732 24.0755C264.377 25.4531 264.7 27.039 264.7 28.8332C264.7 30.2109 264.49 31.5885 264.071 32.9662C263.651 34.3439 262.957 35.5934 261.988 36.7147C261.052 37.8361 259.809 38.7332 258.259 39.406C256.71 40.0788 254.789 40.4152 252.497 40.4152H247.412V52.5739H241.746V17.5876H251.673ZM252.448 35.0327C253.707 35.0327 254.757 34.8405 255.596 34.456C256.435 34.0395 257.081 33.5269 257.533 32.9181C258.017 32.3094 258.356 31.6686 258.55 30.9958C258.776 30.291 258.889 29.6342 258.889 29.0254C258.889 28.4487 258.792 27.824 258.598 27.1512C258.405 26.4463 258.082 25.7895 257.63 25.1808C257.178 24.54 256.532 24.0114 255.693 23.5949C254.886 23.1784 253.869 22.9701 252.642 22.9701H247.412V35.0327H252.448ZM258.55 38.3487L267.558 52.5739H261.02L251.819 38.4929L258.55 38.3487Z" fill="black"/>
<path d="M271.767 17.5876H277.433V52.5739H271.767V17.5876Z" fill="black"/>
<path d="M281.035 52.5739L296.629 16.1459H296.968L312.562 52.5739H306.072L295.079 24.9405L299.147 22.2012L286.604 52.5739H281.035ZM290.818 39.5982H302.876L304.813 44.356H289.123L290.818 39.5982Z" fill="black"/>
<path d="M327.067 35.1288C327.067 32.6939 327.535 30.4031 328.472 28.2565C329.408 26.1099 330.699 24.2036 332.346 22.5376C333.992 20.8716 335.897 19.574 338.06 18.6449C340.256 17.6837 342.596 17.2032 345.082 17.2032C347.536 17.2032 349.844 17.6837 352.007 18.6449C354.203 19.574 356.124 20.8716 357.77 22.5376C359.449 24.2036 360.757 26.1099 361.693 28.2565C362.661 30.4031 363.146 32.6939 363.146 35.1288C363.146 37.5958 362.661 39.9026 361.693 42.0492C360.757 44.1958 359.449 46.1021 357.77 47.7681C356.124 49.4021 354.203 50.6836 352.007 51.6128C349.844 52.5098 347.536 52.9584 345.082 52.9584C342.564 52.9584 340.223 52.5098 338.06 51.6128C335.897 50.6836 333.992 49.4181 332.346 47.8162C330.699 46.1822 329.408 44.2919 328.472 42.1453C327.535 39.9667 327.067 37.6278 327.067 35.1288ZM332.878 35.1288C332.878 36.8589 333.185 38.4769 333.799 39.9827C334.444 41.4885 335.332 42.8181 336.462 43.9715C337.592 45.0929 338.9 45.9739 340.385 46.6147C341.87 47.2555 343.484 47.5759 345.228 47.5759C346.906 47.5759 348.472 47.2555 349.925 46.6147C351.41 45.9739 352.702 45.0929 353.799 43.9715C354.897 42.8181 355.752 41.4885 356.366 39.9827C357.012 38.4769 357.334 36.8589 357.334 35.1288C357.334 33.3667 357.012 31.7327 356.366 30.2269C355.72 28.7211 354.848 27.3915 353.751 26.2381C352.653 25.0847 351.362 24.1876 349.877 23.5468C348.391 22.906 346.793 22.5857 345.082 22.5857C343.371 22.5857 341.773 22.906 340.288 23.5468C338.803 24.1876 337.495 25.0847 336.365 26.2381C335.268 27.3915 334.412 28.7371 333.799 30.275C333.185 31.7808 332.878 33.3987 332.878 35.1288Z" fill="black"/>
<path d="M368.253 17.5876H373.919V47.1914H391.305V52.5739H368.253V17.5876Z" fill="black"/>
<path d="M414.835 24.7002C413.576 24.0594 412.236 23.5148 410.816 23.0662C409.395 22.5857 408.039 22.3454 406.748 22.3454C405.004 22.3454 403.616 22.7298 402.583 23.4988C401.582 24.2677 401.082 25.325 401.082 26.6706C401.082 27.6318 401.437 28.4808 402.147 29.2177C402.857 29.9225 403.761 30.5473 404.859 31.0919C405.957 31.6046 407.119 32.1012 408.346 32.5817C409.411 32.9662 410.46 33.4308 411.494 33.9754C412.559 34.488 413.511 35.1288 414.351 35.8978C415.19 36.6667 415.852 37.6278 416.336 38.7812C416.853 39.9026 417.111 41.2963 417.111 42.9623C417.111 44.7885 416.643 46.4705 415.707 48.0084C414.77 49.5142 413.431 50.7157 411.687 51.6128C409.944 52.5098 407.813 52.9584 405.295 52.9584C403.842 52.9584 402.405 52.7982 400.985 52.4778C399.596 52.1574 398.273 51.7249 397.014 51.1802C395.755 50.6035 394.592 49.9628 393.527 49.2579L396.045 44.8846C396.82 45.4613 397.708 45.99 398.709 46.4705C399.709 46.9511 400.743 47.3356 401.808 47.6239C402.873 47.8802 403.874 48.0084 404.811 48.0084C405.811 48.0084 406.796 47.8482 407.765 47.5278C408.765 47.2074 409.589 46.6788 410.234 45.9419C410.912 45.205 411.251 44.2278 411.251 43.0103C411.251 42.0171 410.961 41.1681 410.38 40.4633C409.799 39.7584 409.04 39.1497 408.104 38.6371C407.2 38.0924 406.199 37.6118 405.101 37.1953C404.003 36.7788 402.873 36.3143 401.711 35.8016C400.581 35.289 399.532 34.6643 398.563 33.9274C397.595 33.1584 396.804 32.2293 396.19 31.14C395.577 30.0507 395.27 28.7051 395.27 27.1031C395.27 25.1808 395.722 23.5148 396.626 22.1051C397.53 20.6954 398.773 19.574 400.355 18.741C401.969 17.908 403.826 17.4595 405.924 17.3954C408.41 17.3954 410.525 17.6998 412.268 18.3085C414.044 18.8852 415.61 19.59 416.966 20.423L414.835 24.7002Z" fill="black"/>
<path d="M419.921 35.1288C419.921 32.6939 420.39 30.4031 421.326 28.2565C422.262 26.1099 423.553 24.2036 425.2 22.5376C426.847 20.8716 428.751 19.574 430.915 18.6449C433.11 17.6837 435.451 17.2032 437.937 17.2032C440.39 17.2032 442.699 17.6837 444.862 18.6449C447.057 19.574 448.978 20.8716 450.625 22.5376C452.303 24.2036 453.611 26.1099 454.547 28.2565C455.516 30.4031 456 32.6939 456 35.1288C456 37.5958 455.516 39.9026 454.547 42.0492C453.611 44.1958 452.303 46.1021 450.625 47.7681C448.978 49.4021 447.057 50.6836 444.862 51.6128C442.699 52.5098 440.39 52.9584 437.937 52.9584C435.418 52.9584 433.078 52.5098 430.915 51.6128C428.751 50.6836 426.847 49.4181 425.2 47.8162C423.553 46.1822 422.262 44.2919 421.326 42.1453C420.39 39.9667 419.921 37.6278 419.921 35.1288ZM425.733 35.1288C425.733 36.8589 426.039 38.4769 426.653 39.9827C427.299 41.4885 428.186 42.8181 429.316 43.9715C430.446 45.0929 431.754 45.9739 433.239 46.6147C434.724 47.2555 436.338 47.5759 438.082 47.5759C439.761 47.5759 441.326 47.2555 442.779 46.6147C444.264 45.9739 445.556 45.0929 446.653 43.9715C447.751 42.8181 448.607 41.4885 449.22 39.9827C449.866 38.4769 450.189 36.8589 450.189 35.1288C450.189 33.3667 449.866 31.7327 449.22 30.2269C448.574 28.7211 447.703 27.3915 446.605 26.2381C445.507 25.0847 444.216 24.1876 442.731 23.5468C441.246 22.906 439.648 22.5857 437.937 22.5857C436.225 22.5857 434.627 22.906 433.142 23.5468C431.657 24.1876 430.35 25.0847 429.22 26.2381C428.122 27.3915 427.266 28.7371 426.653 30.275C426.039 31.7808 425.733 33.3987 425.733 35.1288Z" fill="black"/>
</svg>
